<svg width="751" height="261" viewBox="0 0 751 261" fill="none" xmlns="http://www.w3.org/2000/svg">
<path d="M69 157C50.7001 157 33.1496 149.73 20.2096 136.79C7.26962 123.85 5.81691e-07 106.3 0 88C-5.81691e-07 69.7001 7.26962 52.1497 20.2096 39.2096C33.1496 26.2696 50.7001 19 69 19L69 157Z" fill="#8448A8"/>
<path d="M85 69C85 50.7001 92.2696 33.1496 105.21 20.2096C118.15 7.26962 135.7 -2.18224e-07 154 0C172.3 2.18224e-07 189.85 7.26962 202.79 20.2096C215.73 33.1496 223 50.7001 223 69L85 69Z" fill="#8448A8"/>
<path d="M170 108C188.3 108 205.85 115.27 218.79 128.21C231.73 141.15 239 158.7 239 177C239 195.3 231.73 212.85 218.79 225.79C205.85 238.73 188.3 246 170 246L170 108Z" fill="#8448A8"/>
<path d="M154 192C154 210.3 146.73 227.85 133.79 240.79C120.85 253.73 103.3 261 85 261C66.7001 261 49.1497 253.73 36.2096 240.79C23.2696 227.85 16 210.3 16 192L154 192Z" fill="#8448A8"/>
<path d="M354.34 23.68V38.24H308V62.74H352.38V77.3H308V120H290.78V23.68H354.34Z" fill="#8448A8"/>
<path d="M354.726 85.42C354.726 64 368.866 49.16 388.886 49.16C408.906 49.16 423.046 64 423.046 85.42C423.046 106.84 408.906 121.68 388.886 121.68C368.866 121.68 354.726 106.84 354.726 85.42ZM405.966 85.42C405.966 71.84 400.086 62.46 388.886 62.46C377.686 62.46 371.806 71.84 371.806 85.42C371.806 99 377.686 108.38 388.886 108.38C400.086 108.38 405.966 99 405.966 85.42Z" fill="#8448A8"/>
<path d="M425.112 85.42C425.112 64.28 437.012 49.16 455.772 49.16C465.432 49.16 472.572 53.78 476.912 59.52V23.68H493.712V120H477.192V110.9C473.132 116.92 465.852 121.68 455.772 121.68C437.012 121.68 425.112 106.56 425.112 85.42ZM477.612 85.42C477.612 71.28 470.472 62.46 459.412 62.46C448.352 62.46 442.192 71.42 442.192 85.42C442.192 99.42 448.352 108.38 459.412 108.38C470.472 108.38 477.612 99.56 477.612 85.42Z" fill="#8448A8"/>
<path d="M503.79 120V50.84H520.31V59.94L520.59 59.8C524.09 54.06 530.95 49.16 539.91 49.16C548.87 49.16 556.01 53.64 559.23 61.34C564.97 54.48 571.55 49.16 582.33 49.16C596.75 49.16 605.85 58.96 605.85 75.76V120H589.19V80.24C589.19 69.04 586.25 62.88 577.43 62.88C569.59 62.88 563.43 69.32 563.43 80.94V120H546.63V80.94C546.63 68.76 543.97 62.88 535.01 62.88C527.03 62.88 520.59 69.6 520.59 80.94V120H503.79Z" fill="#8448A8"/>
<path d="M611.545 100.96C611.545 88.64 619.945 82.48 636.325 79.12L645.845 77.16C652.565 75.9 655.505 74.08 655.505 69.04C655.505 64.42 651.305 61.06 644.025 61.06C635.485 61.06 629.745 66.38 629.325 74.64L612.945 73.24C613.925 58.82 625.545 49.16 643.465 49.16C661.805 49.16 672.025 57 672.025 73.24V120H656.205V113.14H656.065C652.705 118.04 645.005 121.68 635.905 121.68C622.745 121.68 611.545 113.84 611.545 100.96ZM655.925 95.64V86.68C647.105 87.94 640.805 89.48 636.885 91.16C631.425 93.4 628.485 96.34 628.485 100.68C628.485 106.42 633.385 110.06 640.525 110.06C649.485 110.06 655.925 104.46 655.925 95.64Z" fill="#8448A8"/>
<path d="M681.606 145.9V50.84H698.126V59.94C702.186 53.92 709.466 49.16 719.546 49.16C738.306 49.16 750.206 64.28 750.206 85.42C750.206 106.56 738.306 121.68 719.546 121.68C709.886 121.68 702.746 117.06 698.406 111.32V145.9H681.606ZM733.126 85.42C733.126 71.42 726.966 62.46 715.906 62.46C704.846 62.46 697.706 71.28 697.706 85.42C697.706 99.56 704.846 108.38 715.906 108.38C726.966 108.38 733.126 99.42 733.126 85.42Z" fill="#8448A8"/>
</svg>
